<svg xmlns="http://www.w3.org/2000/svg" xmlns:xlink="http://www.w3.org/1999/xlink" version="1.1" x="0px" y="0px" viewBox="0 0 100 125" style="enable-background:new 0 0 100 100;" xml:space="preserve"><path d="M64,17h-1.1c-0.5-2.8-2.9-5-5.9-5h-8.2c-1.9-3.6-5.6-6-9.8-6s-7.9,2.4-9.8,6H22c-3,0-5.4,2.2-5.9,5H14c-4.4,0-8,3.6-8,8v61  c0,4.4,3.6,8,8,8h50c4.4,0,8-3.6,8-8V25C72,20.6,68.4,17,64,17z M20,18c0-1.1,0.9-2,2-2h8.5c0.8,0,1.6-0.5,1.9-1.3  c1-2.8,3.6-4.7,6.6-4.7s5.6,1.9,6.6,4.7c0.3,0.8,1,1.3,1.9,1.3H57c1.1,0,2,0.9,2,2v2c0,1.1-0.9,2-2,2H22c-1.1,0-2-0.9-2-2V18z   M68,86c0,2.2-1.8,4-4,4H14c-2.2,0-4-1.8-4-4V25c0-2.2,1.8-4,4-4h2.1c0.5,2.8,2.9,5,5.9,5h35c3,0,5.4-2.2,5.9-5H64c2.2,0,4,1.8,4,4  V86z M35.4,34.6c0.8,0.8,0.8,2,0,2.8l-10,10C25,47.8,24.5,48,24,48s-1-0.2-1.4-0.6l-6-6c-0.8-0.8-0.8-2,0-2.8c0.8-0.8,2-0.8,2.8,0  l0.9,0.8l3.7,3.7l6.2-6.2l2.4-2.4C33.4,33.8,34.6,33.8,35.4,34.6z M35.4,68.6c0.8,0.8,0.8,2,0,2.8l-10,10C25,81.8,24.5,82,24,82  s-1-0.2-1.4-0.6l-6-6c-0.8-0.8-0.8-2,0-2.8c0.8-0.8,2-0.8,2.8,0l0.9,0.8l3.7,3.7l6.2-6.2l2.4-2.4C33.4,67.8,34.6,67.8,35.4,68.6z   M35.4,51.6c0.8,0.8,0.8,2,0,2.8l-10,10C25,64.8,24.5,65,24,65s-1-0.2-1.4-0.6l-6-6c-0.8-0.8-0.8-2,0-2.8c0.8-0.8,2-0.8,2.8,0  l0.9,0.8l3.7,3.7l6.2-6.2l2.4-2.4C33.4,50.8,34.6,50.8,35.4,51.6z M62,41c0,1.1-0.9,2-2,2H44c-1.1,0-2-0.9-2-2c0-1.1,0.9-2,2-2h16  C61.1,39,62,39.9,62,41z M62,58c0,1.1-0.9,2-2,2H44c-1.1,0-2-0.9-2-2c0-1.1,0.9-2,2-2h16C61.1,56,62,56.9,62,58z M62,75  c0,1.1-0.9,2-2,2H44c-1.1,0-2-0.9-2-2c0-1.1,0.9-2,2-2h16C61.1,73,62,73.9,62,75z M93.7,37l-6-10c-0.4-0.6-1-1-1.7-1s-1.3,0.4-1.7,1  l-6,10c-0.2,0.3-0.3,0.7-0.3,1v48c0,4.4,3.6,8,8,8s8-3.6,8-8V38C94,37.6,93.9,37.3,93.7,37z M90,86c0,2.2-1.8,4-4,4s-4-1.8-4-4V38.5  l4-6.7l4,6.7V86z"/><text x="0" y="115" fill="#000000" font-size="5px" font-weight="bold" font-family="'Helvetica Neue', Helvetica, Arial-Unicode, Arial, Sans-serif">Created by IconMark</text><text x="0" y="120" fill="#000000" font-size="5px" font-weight="bold" font-family="'Helvetica Neue', Helvetica, Arial-Unicode, Arial, Sans-serif">from the Noun Project</text></svg>